<?xml version="1.0" encoding="UTF-8" standalone="no"?>
<!DOCTYPE svg PUBLIC "-//W3C//DTD SVG 1.1//EN"
 "http://www.w3.org/Graphics/SVG/1.1/DTD/svg11.dtd">
<!-- Generated by graphviz version 14.1.1 (0)
 -->
<!-- Title: snakemake_dag Pages: 1 -->
<svg width="230pt" height="332pt"
 viewBox="0.00 0.00 230.00 332.00" xmlns="http://www.w3.org/2000/svg" xmlns:xlink="http://www.w3.org/1999/xlink">
<g id="graph0" class="graph" transform="scale(1 1) rotate(0) translate(4 328)">
<title>snakemake_dag</title>
<polygon fill="white" stroke="none" points="-4,4 -4,-328 225.5,-328 225.5,4 -4,4"/>
<!-- 0 -->
<g id="node1" class="node">
<title>0</title>
<path fill="none" stroke="#d85656" stroke-width="2" d="M125.75,-36C125.75,-36 95.75,-36 95.75,-36 89.75,-36 83.75,-30 83.75,-24 83.75,-24 83.75,-12 83.75,-12 83.75,-6 89.75,0 95.75,0 95.75,0 125.75,0 125.75,0 131.75,0 137.75,-6 137.75,-12 137.75,-12 137.75,-24 137.75,-24 137.75,-30 131.75,-36 125.75,-36"/>
<text xml:space="preserve" text-anchor="middle" x="110.75" y="-14.12" font-family="sans" font-size="10.00">all</text>
</g>
<!-- 1 -->
<g id="node2" class="node">
<title>1</title>
<path fill="none" stroke="#56d88a" stroke-width="2" d="M89.75,-108C89.75,-108 59.75,-108 59.75,-108 53.75,-108 47.75,-102 47.75,-96 47.75,-96 47.75,-84 47.75,-84 47.75,-78 53.75,-72 59.75,-72 59.75,-72 89.75,-72 89.75,-72 95.75,-72 101.75,-78 101.75,-84 101.75,-84 101.75,-96 101.75,-96 101.75,-102 95.75,-108 89.75,-108"/>
<text xml:space="preserve" text-anchor="middle" x="74.75" y="-86.12" font-family="sans" font-size="10.00">final</text>
</g>
<!-- 1&#45;&gt;0 -->
<g id="edge1" class="edge">
<title>1&#45;&gt;0</title>
<path fill="none" stroke="grey" stroke-width="2" d="M83.83,-71.34C87.43,-64.34 91.66,-56.12 95.69,-48.28"/>
<polygon fill="grey" stroke="grey" stroke-width="2" points="98.7,-50.09 100.16,-39.59 92.47,-46.89 98.7,-50.09"/>
</g>
<!-- 2 -->
<g id="node3" class="node">
<title>2</title>
<path fill="none" stroke="#88d856" stroke-width="2" d="M89.75,-180C89.75,-180 55.75,-180 55.75,-180 49.75,-180 43.75,-174 43.75,-168 43.75,-168 43.75,-156 43.75,-156 43.75,-150 49.75,-144 55.75,-144 55.75,-144 89.75,-144 89.75,-144 95.75,-144 101.75,-150 101.75,-156 101.75,-156 101.75,-168 101.75,-168 101.75,-174 95.75,-180 89.75,-180"/>
<text xml:space="preserve" text-anchor="middle" x="72.75" y="-158.12" font-family="sans" font-size="10.00">collect_te</text>
</g>
<!-- 2&#45;&gt;1 -->
<g id="edge3" class="edge">
<title>2&#45;&gt;1</title>
<path fill="none" stroke="grey" stroke-width="2" d="M73.25,-143.34C73.44,-136.75 73.66,-129.08 73.87,-121.67"/>
<polygon fill="grey" stroke="grey" stroke-width="2" points="77.36,-122.02 74.15,-111.93 70.37,-121.82 77.36,-122.02"/>
</g>
<!-- 3 -->
<g id="node4" class="node">
<title>3</title>
<path fill="none" stroke="#56c1d8" stroke-width="2" d="M89.5,-252C89.5,-252 12,-252 12,-252 6,-252 0,-246 0,-240 0,-240 0,-228 0,-228 0,-222 6,-216 12,-216 12,-216 89.5,-216 89.5,-216 95.5,-216 101.5,-222 101.5,-228 101.5,-228 101.5,-240 101.5,-240 101.5,-246 95.5,-252 89.5,-252"/>
<text xml:space="preserve" text-anchor="middle" x="50.75" y="-230.12" font-family="sans" font-size="10.00">run_repeatmodeler2</text>
</g>
<!-- 3&#45;&gt;2 -->
<g id="edge4" class="edge">
<title>3&#45;&gt;2</title>
<path fill="none" stroke="grey" stroke-width="2" d="M56.3,-215.34C58.42,-208.59 60.9,-200.69 63.29,-193.11"/>
<polygon fill="grey" stroke="grey" stroke-width="2" points="66.56,-194.38 66.22,-183.79 59.88,-192.28 66.56,-194.38"/>
</g>
<!-- 4 -->
<g id="node5" class="node">
<title>4</title>
<path fill="none" stroke="#d8bc56" stroke-width="2" d="M83.88,-324C83.88,-324 17.63,-324 17.63,-324 11.63,-324 5.62,-318 5.62,-312 5.62,-312 5.62,-300 5.62,-300 5.62,-294 11.62,-288 17.62,-288 17.62,-288 83.88,-288 83.88,-288 89.88,-288 95.88,-294 95.88,-300 95.88,-300 95.88,-312 95.88,-312 95.88,-318 89.88,-324 83.88,-324"/>
<text xml:space="preserve" text-anchor="middle" x="50.75" y="-307.75" font-family="sans" font-size="10.00">build_database</text>
<text xml:space="preserve" text-anchor="middle" x="50.75" y="-296.5" font-family="sans" font-size="10.00">sample: sample1</text>
</g>
<!-- 4&#45;&gt;3 -->
<g id="edge5" class="edge">
<title>4&#45;&gt;3</title>
<path fill="none" stroke="grey" stroke-width="2" d="M50.75,-287.34C50.75,-280.75 50.75,-273.08 50.75,-265.67"/>
<polygon fill="grey" stroke="grey" stroke-width="2" points="54.25,-265.93 50.75,-255.93 47.25,-265.93 54.25,-265.93"/>
</g>
<!-- 5 -->
<g id="node6" class="node">
<title>5</title>
<path fill="none" stroke="#56d88a" stroke-width="2" d="M167.75,-108C167.75,-108 137.75,-108 137.75,-108 131.75,-108 125.75,-102 125.75,-96 125.75,-96 125.75,-84 125.75,-84 125.75,-78 131.75,-72 137.75,-72 137.75,-72 167.75,-72 167.75,-72 173.75,-72 179.75,-78 179.75,-84 179.75,-84 179.75,-96 179.75,-96 179.75,-102 173.75,-108 167.75,-108"/>
<text xml:space="preserve" text-anchor="middle" x="152.75" y="-86.12" font-family="sans" font-size="10.00">final</text>
</g>
<!-- 5&#45;&gt;0 -->
<g id="edge2" class="edge">
<title>5&#45;&gt;0</title>
<path fill="none" stroke="grey" stroke-width="2" d="M142.15,-71.34C137.91,-64.26 132.9,-55.92 128.15,-48"/>
<polygon fill="grey" stroke="grey" stroke-width="2" points="131.19,-46.27 123.05,-39.5 125.19,-49.87 131.19,-46.27"/>
</g>
<!-- 6 -->
<g id="node7" class="node">
<title>6</title>
<path fill="none" stroke="#88d856" stroke-width="2" d="M176.75,-180C176.75,-180 142.75,-180 142.75,-180 136.75,-180 130.75,-174 130.75,-168 130.75,-168 130.75,-156 130.75,-156 130.75,-150 136.75,-144 142.75,-144 142.75,-144 176.75,-144 176.75,-144 182.75,-144 188.75,-150 188.75,-156 188.75,-156 188.75,-168 188.75,-168 188.75,-174 182.75,-180 176.75,-180"/>
<text xml:space="preserve" text-anchor="middle" x="159.75" y="-158.12" font-family="sans" font-size="10.00">collect_te</text>
</g>
<!-- 6&#45;&gt;5 -->
<g id="edge6" class="edge">
<title>6&#45;&gt;5</title>
<path fill="none" stroke="grey" stroke-width="2" d="M157.98,-143.34C157.33,-136.75 156.56,-129.08 155.82,-121.67"/>
<polygon fill="grey" stroke="grey" stroke-width="2" points="159.32,-121.52 154.84,-111.91 152.35,-122.21 159.32,-121.52"/>
</g>
<!-- 7 -->
<g id="node8" class="node">
<title>7</title>
<path fill="none" stroke="#56c1d8" stroke-width="2" d="M209.5,-252C209.5,-252 132,-252 132,-252 126,-252 120,-246 120,-240 120,-240 120,-228 120,-228 120,-222 126,-216 132,-216 132,-216 209.5,-216 209.5,-216 215.5,-216 221.5,-222 221.5,-228 221.5,-228 221.5,-240 221.5,-240 221.5,-246 215.5,-252 209.5,-252"/>
<text xml:space="preserve" text-anchor="middle" x="170.75" y="-230.12" font-family="sans" font-size="10.00">run_repeatmodeler2</text>
</g>
<!-- 7&#45;&gt;6 -->
<g id="edge7" class="edge">
<title>7&#45;&gt;6</title>
<path fill="none" stroke="grey" stroke-width="2" d="M167.97,-215.34C166.94,-208.75 165.73,-201.08 164.57,-193.67"/>
<polygon fill="grey" stroke="grey" stroke-width="2" points="168.04,-193.23 163.03,-183.89 161.13,-194.31 168.04,-193.23"/>
</g>
<!-- 8 -->
<g id="node9" class="node">
<title>8</title>
<path fill="none" stroke="#d8bc56" stroke-width="2" d="M203.88,-324C203.88,-324 137.62,-324 137.62,-324 131.62,-324 125.62,-318 125.62,-312 125.62,-312 125.62,-300 125.62,-300 125.62,-294 131.62,-288 137.62,-288 137.62,-288 203.88,-288 203.88,-288 209.88,-288 215.88,-294 215.88,-300 215.88,-300 215.88,-312 215.88,-312 215.88,-318 209.88,-324 203.88,-324"/>
<text xml:space="preserve" text-anchor="middle" x="170.75" y="-307.75" font-family="sans" font-size="10.00">build_database</text>
<text xml:space="preserve" text-anchor="middle" x="170.75" y="-296.5" font-family="sans" font-size="10.00">sample: sample2</text>
</g>
<!-- 8&#45;&gt;7 -->
<g id="edge8" class="edge">
<title>8&#45;&gt;7</title>
<path fill="none" stroke="grey" stroke-width="2" d="M170.75,-287.34C170.75,-280.75 170.75,-273.08 170.75,-265.67"/>
<polygon fill="grey" stroke="grey" stroke-width="2" points="174.25,-265.93 170.75,-255.93 167.25,-265.93 174.25,-265.93"/>
</g>
</g>
</svg>
