<?xml version="1.0" encoding="UTF-8" standalone="no"?>
<!DOCTYPE svg PUBLIC "-//W3C//DTD SVG 1.1//EN"
 "http://www.w3.org/Graphics/SVG/1.1/DTD/svg11.dtd">
<!-- Generated by graphviz version 14.1.1 (0)
 -->
<!-- Title: snakemake_dag Pages: 1 -->
<svg width="110pt" height="332pt"
 viewBox="0.00 0.00 110.00 332.00" xmlns="http://www.w3.org/2000/svg" xmlns:xlink="http://www.w3.org/1999/xlink">
<g id="graph0" class="graph" transform="scale(1 1) rotate(0) translate(4 328)">
<title>snakemake_dag</title>
<polygon fill="white" stroke="none" points="-4,4 -4,-328 105.5,-328 105.5,4 -4,4"/>
<!-- 0 -->
<g id="node1" class="node">
<title>0</title>
<path fill="none" stroke="#d85656" stroke-width="2" d="M65.75,-36C65.75,-36 35.75,-36 35.75,-36 29.75,-36 23.75,-30 23.75,-24 23.75,-24 23.75,-12 23.75,-12 23.75,-6 29.75,0 35.75,0 35.75,0 65.75,0 65.75,0 71.75,0 77.75,-6 77.75,-12 77.75,-12 77.75,-24 77.75,-24 77.75,-30 71.75,-36 65.75,-36"/>
<text xml:space="preserve" text-anchor="middle" x="50.75" y="-14.12" font-family="sans" font-size="10.00">all</text>
</g>
<!-- 1 -->
<g id="node2" class="node">
<title>1</title>
<path fill="none" stroke="#56d88a" stroke-width="2" d="M65.75,-108C65.75,-108 35.75,-108 35.75,-108 29.75,-108 23.75,-102 23.75,-96 23.75,-96 23.75,-84 23.75,-84 23.75,-78 29.75,-72 35.75,-72 35.75,-72 65.75,-72 65.75,-72 71.75,-72 77.75,-78 77.75,-84 77.75,-84 77.75,-96 77.75,-96 77.75,-102 71.75,-108 65.75,-108"/>
<text xml:space="preserve" text-anchor="middle" x="50.75" y="-86.12" font-family="sans" font-size="10.00">final</text>
</g>
<!-- 1&#45;&gt;0 -->
<g id="edge1" class="edge">
<title>1&#45;&gt;0</title>
<path fill="none" stroke="grey" stroke-width="2" d="M50.75,-71.34C50.75,-64.75 50.75,-57.08 50.75,-49.67"/>
<polygon fill="grey" stroke="grey" stroke-width="2" points="54.25,-49.93 50.75,-39.93 47.25,-49.93 54.25,-49.93"/>
</g>
<!-- 2 -->
<g id="node3" class="node">
<title>2</title>
<path fill="none" stroke="#88d856" stroke-width="2" d="M67.75,-180C67.75,-180 33.75,-180 33.75,-180 27.75,-180 21.75,-174 21.75,-168 21.75,-168 21.75,-156 21.75,-156 21.75,-150 27.75,-144 33.75,-144 33.75,-144 67.75,-144 67.75,-144 73.75,-144 79.75,-150 79.75,-156 79.75,-156 79.75,-168 79.75,-168 79.75,-174 73.75,-180 67.75,-180"/>
<text xml:space="preserve" text-anchor="middle" x="50.75" y="-158.12" font-family="sans" font-size="10.00">collect_te</text>
</g>
<!-- 2&#45;&gt;1 -->
<g id="edge2" class="edge">
<title>2&#45;&gt;1</title>
<path fill="none" stroke="grey" stroke-width="2" d="M50.75,-143.34C50.75,-136.75 50.75,-129.08 50.75,-121.67"/>
<polygon fill="grey" stroke="grey" stroke-width="2" points="54.25,-121.93 50.75,-111.93 47.25,-121.93 54.25,-121.93"/>
</g>
<!-- 3 -->
<g id="node4" class="node">
<title>3</title>
<path fill="none" stroke="#56c1d8" stroke-width="2" d="M89.5,-252C89.5,-252 12,-252 12,-252 6,-252 0,-246 0,-240 0,-240 0,-228 0,-228 0,-222 6,-216 12,-216 12,-216 89.5,-216 89.5,-216 95.5,-216 101.5,-222 101.5,-228 101.5,-228 101.5,-240 101.5,-240 101.5,-246 95.5,-252 89.5,-252"/>
<text xml:space="preserve" text-anchor="middle" x="50.75" y="-230.12" font-family="sans" font-size="10.00">run_repeatmodeler2</text>
</g>
<!-- 3&#45;&gt;2 -->
<g id="edge3" class="edge">
<title>3&#45;&gt;2</title>
<path fill="none" stroke="grey" stroke-width="2" d="M50.75,-215.34C50.75,-208.75 50.75,-201.08 50.75,-193.67"/>
<polygon fill="grey" stroke="grey" stroke-width="2" points="54.25,-193.93 50.75,-183.93 47.25,-193.93 54.25,-193.93"/>
</g>
<!-- 4 -->
<g id="node5" class="node">
<title>4</title>
<path fill="none" stroke="#d8bc56" stroke-width="2" d="M79.38,-324C79.38,-324 22.12,-324 22.12,-324 16.13,-324 10.12,-318 10.12,-312 10.12,-312 10.12,-300 10.12,-300 10.12,-294 16.12,-288 22.12,-288 22.12,-288 79.38,-288 79.38,-288 85.38,-288 91.38,-294 91.38,-300 91.38,-300 91.38,-312 91.38,-312 91.38,-318 85.38,-324 79.38,-324"/>
<text xml:space="preserve" text-anchor="middle" x="50.75" y="-302.12" font-family="sans" font-size="10.00">build_database</text>
</g>
<!-- 4&#45;&gt;3 -->
<g id="edge4" class="edge">
<title>4&#45;&gt;3</title>
<path fill="none" stroke="grey" stroke-width="2" d="M50.75,-287.34C50.75,-280.75 50.75,-273.08 50.75,-265.67"/>
<polygon fill="grey" stroke="grey" stroke-width="2" points="54.25,-265.93 50.75,-255.93 47.25,-265.93 54.25,-265.93"/>
</g>
</g>
</svg>
