<?xml version="1.0" encoding="UTF-8" standalone="no"?>
<!DOCTYPE svg PUBLIC "-//W3C//DTD SVG 1.1//EN"
 "http://www.w3.org/Graphics/SVG/1.1/DTD/svg11.dtd">
<!-- Generated by graphviz version 14.1.1 (0)
 -->
<!-- Title: snakemake_dag Pages: 1 -->
<svg width="416pt" height="908pt"
 viewBox="0.00 0.00 416.00 908.00" xmlns="http://www.w3.org/2000/svg" xmlns:xlink="http://www.w3.org/1999/xlink">
<g id="graph0" class="graph" transform="scale(1 1) rotate(0) translate(4 904)">
<title>snakemake_dag</title>
<polygon fill="white" stroke="none" points="-4,4 -4,-904 411.75,-904 411.75,4 -4,4"/>
<!-- 0 -->
<g id="node1" class="node">
<title>0</title>
<path fill="none" stroke="#d85656" stroke-width="2" d="M127,-36C127,-36 97,-36 97,-36 91,-36 85,-30 85,-24 85,-24 85,-12 85,-12 85,-6 91,0 97,0 97,0 127,0 127,0 133,0 139,-6 139,-12 139,-12 139,-24 139,-24 139,-30 133,-36 127,-36"/>
<text xml:space="preserve" text-anchor="middle" x="112" y="-14.12" font-family="sans" font-size="10.00">all</text>
</g>
<!-- 1 -->
<g id="node2" class="node">
<title>1</title>
<path fill="none" stroke="#56d87b" stroke-width="2" d="M127,-108C127,-108 97,-108 97,-108 91,-108 85,-102 85,-96 85,-96 85,-84 85,-84 85,-78 91,-72 97,-72 97,-72 127,-72 127,-72 133,-72 139,-78 139,-84 139,-84 139,-96 139,-96 139,-102 133,-108 127,-108"/>
<text xml:space="preserve" text-anchor="middle" x="112" y="-86.12" font-family="sans" font-size="10.00">final</text>
</g>
<!-- 1&#45;&gt;0 -->
<g id="edge1" class="edge">
<title>1&#45;&gt;0</title>
<path fill="none" stroke="grey" stroke-width="2" d="M112,-71.34C112,-64.75 112,-57.08 112,-49.67"/>
<polygon fill="grey" stroke="grey" stroke-width="2" points="115.5,-49.93 112,-39.93 108.5,-49.93 115.5,-49.93"/>
</g>
<!-- 2 -->
<g id="node3" class="node">
<title>2</title>
<path fill="none" stroke="#56d8d8" stroke-width="2" d="M395.75,-540C395.75,-540 306.25,-540 306.25,-540 300.25,-540 294.25,-534 294.25,-528 294.25,-528 294.25,-516 294.25,-516 294.25,-510 300.25,-504 306.25,-504 306.25,-504 395.75,-504 395.75,-504 401.75,-504 407.75,-510 407.75,-516 407.75,-516 407.75,-528 407.75,-528 407.75,-534 401.75,-540 395.75,-540"/>
<text xml:space="preserve" text-anchor="middle" x="351" y="-518.12" font-family="sans" font-size="10.00">plot_repeat_landscape</text>
</g>
<!-- 2&#45;&gt;1 -->
<g id="edge3" class="edge">
<title>2&#45;&gt;1</title>
<path fill="none" stroke="grey" stroke-width="2" d="M354.52,-503.15C359.5,-476.32 368,-423.94 368,-379 368,-379 368,-379 368,-233 368,-135.63 224.64,-104.47 152.48,-94.95"/>
<polygon fill="grey" stroke="grey" stroke-width="2" points="153.24,-91.52 142.89,-93.78 152.39,-98.47 153.24,-91.52"/>
</g>
<!-- 3 -->
<g id="node4" class="node">
<title>3</title>
<path fill="none" stroke="#56b9d8" stroke-width="2" d="M265.62,-684C265.62,-684 214.38,-684 214.38,-684 208.38,-684 202.38,-678 202.38,-672 202.38,-672 202.38,-660 202.38,-660 202.38,-654 208.38,-648 214.38,-648 214.38,-648 265.62,-648 265.62,-648 271.62,-648 277.62,-654 277.62,-660 277.62,-660 277.62,-672 277.62,-672 277.62,-678 271.62,-684 265.62,-684"/>
<text xml:space="preserve" text-anchor="middle" x="240" y="-662.12" font-family="sans" font-size="10.00">repeatmasker</text>
</g>
<!-- 3&#45;&gt;2 -->
<g id="edge5" class="edge">
<title>3&#45;&gt;2</title>
<path fill="none" stroke="grey" stroke-width="2" d="M254.06,-647.02C272.99,-622.8 306.87,-579.45 329.14,-550.96"/>
<polygon fill="grey" stroke="grey" stroke-width="2" points="331.79,-553.26 335.19,-543.22 326.28,-548.95 331.79,-553.26"/>
</g>
<!-- 8 -->
<g id="node9" class="node">
<title>8</title>
<path fill="none" stroke="#56d89a" stroke-width="2" d="M233.25,-612C233.25,-612 182.75,-612 182.75,-612 176.75,-612 170.75,-606 170.75,-600 170.75,-600 170.75,-588 170.75,-588 170.75,-582 176.75,-576 182.75,-576 182.75,-576 233.25,-576 233.25,-576 239.25,-576 245.25,-582 245.25,-588 245.25,-588 245.25,-600 245.25,-600 245.25,-606 239.25,-612 233.25,-612"/>
<text xml:space="preserve" text-anchor="middle" x="208" y="-590.12" font-family="sans" font-size="10.00">make_te_bed</text>
</g>
<!-- 3&#45;&gt;8 -->
<g id="edge11" class="edge">
<title>3&#45;&gt;8</title>
<path fill="none" stroke="grey" stroke-width="2" d="M231.93,-647.34C228.77,-640.43 225.06,-632.31 221.51,-624.56"/>
<polygon fill="grey" stroke="grey" stroke-width="2" points="224.78,-623.29 217.44,-615.65 218.42,-626.2 224.78,-623.29"/>
</g>
<!-- 4 -->
<g id="node5" class="node">
<title>4</title>
<path fill="none" stroke="#b6d856" stroke-width="2" d="M257,-756C257,-756 223,-756 223,-756 217,-756 211,-750 211,-744 211,-744 211,-732 211,-732 211,-726 217,-720 223,-720 223,-720 257,-720 257,-720 263,-720 269,-726 269,-732 269,-732 269,-744 269,-744 269,-750 263,-756 257,-756"/>
<text xml:space="preserve" text-anchor="middle" x="240" y="-734.12" font-family="sans" font-size="10.00">collect_te</text>
</g>
<!-- 4&#45;&gt;3 -->
<g id="edge6" class="edge">
<title>4&#45;&gt;3</title>
<path fill="none" stroke="grey" stroke-width="2" d="M240,-719.34C240,-712.75 240,-705.08 240,-697.67"/>
<polygon fill="grey" stroke="grey" stroke-width="2" points="243.5,-697.93 240,-687.93 236.5,-697.93 243.5,-697.93"/>
</g>
<!-- 5 -->
<g id="node6" class="node">
<title>5</title>
<path fill="none" stroke="#569ad8" stroke-width="2" d="M266.75,-828C266.75,-828 213.25,-828 213.25,-828 207.25,-828 201.25,-822 201.25,-816 201.25,-816 201.25,-804 201.25,-804 201.25,-798 207.25,-792 213.25,-792 213.25,-792 266.75,-792 266.75,-792 272.75,-792 278.75,-798 278.75,-804 278.75,-804 278.75,-816 278.75,-816 278.75,-822 272.75,-828 266.75,-828"/>
<text xml:space="preserve" text-anchor="middle" x="240" y="-806.12" font-family="sans" font-size="10.00">repeatmodeler</text>
</g>
<!-- 5&#45;&gt;4 -->
<g id="edge7" class="edge">
<title>5&#45;&gt;4</title>
<path fill="none" stroke="grey" stroke-width="2" d="M240,-791.34C240,-784.75 240,-777.08 240,-769.67"/>
<polygon fill="grey" stroke="grey" stroke-width="2" points="243.5,-769.93 240,-759.93 236.5,-769.93 243.5,-769.93"/>
</g>
<!-- 6 -->
<g id="node7" class="node">
<title>6</title>
<path fill="none" stroke="#d87556" stroke-width="2" d="M268.62,-900C268.62,-900 211.38,-900 211.38,-900 205.38,-900 199.38,-894 199.38,-888 199.38,-888 199.38,-876 199.38,-876 199.38,-870 205.38,-864 211.38,-864 211.38,-864 268.62,-864 268.62,-864 274.62,-864 280.62,-870 280.62,-876 280.62,-876 280.62,-888 280.62,-888 280.62,-894 274.62,-900 268.62,-900"/>
<text xml:space="preserve" text-anchor="middle" x="240" y="-878.12" font-family="sans" font-size="10.00">build_database</text>
</g>
<!-- 6&#45;&gt;5 -->
<g id="edge8" class="edge">
<title>6&#45;&gt;5</title>
<path fill="none" stroke="grey" stroke-width="2" d="M240,-863.34C240,-856.75 240,-849.08 240,-841.67"/>
<polygon fill="grey" stroke="grey" stroke-width="2" points="243.5,-841.93 240,-831.93 236.5,-841.93 243.5,-841.93"/>
</g>
<!-- 7 -->
<g id="node8" class="node">
<title>7</title>
<path fill="none" stroke="#78d856" stroke-width="2" d="M120.25,-540C120.25,-540 57.75,-540 57.75,-540 51.75,-540 45.75,-534 45.75,-528 45.75,-528 45.75,-516 45.75,-516 45.75,-510 51.75,-504 57.75,-504 57.75,-504 120.25,-504 120.25,-504 126.25,-504 132.25,-510 132.25,-516 132.25,-516 132.25,-528 132.25,-528 132.25,-534 126.25,-540 120.25,-540"/>
<text xml:space="preserve" text-anchor="middle" x="89" y="-518.12" font-family="sans" font-size="10.00">extract_te_fasta</text>
</g>
<!-- 7&#45;&gt;1 -->
<g id="edge4" class="edge">
<title>7&#45;&gt;1</title>
<path fill="none" stroke="grey" stroke-width="2" d="M68.36,-503.07C42.07,-478.12 0,-430.21 0,-379 0,-379 0,-379 0,-233 0,-183.99 41.65,-141.95 74.15,-116.6"/>
<polygon fill="grey" stroke="grey" stroke-width="2" points="76,-119.59 81.89,-110.79 71.79,-113.99 76,-119.59"/>
</g>
<!-- 11 -->
<g id="node12" class="node">
<title>11</title>
<path fill="none" stroke="#d89556" stroke-width="2" d="M104,-468C104,-468 74,-468 74,-468 68,-468 62,-462 62,-456 62,-456 62,-444 62,-444 62,-438 68,-432 74,-432 74,-432 104,-432 104,-432 110,-432 116,-438 116,-444 116,-444 116,-456 116,-456 116,-462 110,-468 104,-468"/>
<text xml:space="preserve" text-anchor="middle" x="89" y="-446.12" font-family="sans" font-size="10.00">call_orfs</text>
</g>
<!-- 7&#45;&gt;11 -->
<g id="edge14" class="edge">
<title>7&#45;&gt;11</title>
<path fill="none" stroke="grey" stroke-width="2" d="M89,-503.34C89,-496.75 89,-489.08 89,-481.67"/>
<polygon fill="grey" stroke="grey" stroke-width="2" points="92.5,-481.93 89,-471.93 85.5,-481.93 92.5,-481.93"/>
</g>
<!-- 8&#45;&gt;7 -->
<g id="edge10" class="edge">
<title>8&#45;&gt;7</title>
<path fill="none" stroke="grey" stroke-width="2" d="M177.66,-575.15C163.26,-566.68 145.82,-556.42 130.23,-547.25"/>
<polygon fill="grey" stroke="grey" stroke-width="2" points="132.28,-544.4 121.89,-542.35 128.74,-550.43 132.28,-544.4"/>
</g>
<!-- 9 -->
<g id="node10" class="node">
<title>9</title>
<path fill="none" stroke="#97d856" stroke-width="2" d="M131.5,-612C131.5,-612 46.5,-612 46.5,-612 40.5,-612 34.5,-606 34.5,-600 34.5,-600 34.5,-588 34.5,-588 34.5,-582 40.5,-576 46.5,-576 46.5,-576 131.5,-576 131.5,-576 137.5,-576 143.5,-582 143.5,-588 143.5,-588 143.5,-600 143.5,-600 143.5,-606 137.5,-612 131.5,-612"/>
<text xml:space="preserve" text-anchor="middle" x="89" y="-590.12" font-family="sans" font-size="10.00">decompress_genome</text>
</g>
<!-- 9&#45;&gt;7 -->
<g id="edge9" class="edge">
<title>9&#45;&gt;7</title>
<path fill="none" stroke="grey" stroke-width="2" d="M89,-575.34C89,-568.75 89,-561.08 89,-553.67"/>
<polygon fill="grey" stroke="grey" stroke-width="2" points="92.5,-553.93 89,-543.93 85.5,-553.93 92.5,-553.93"/>
</g>
<!-- 10 -->
<g id="node11" class="node">
<title>10</title>
<path fill="none" stroke="#56d8b9" stroke-width="2" d="M128.62,-180C128.62,-180 95.38,-180 95.38,-180 89.38,-180 83.38,-174 83.38,-168 83.38,-168 83.38,-156 83.38,-156 83.38,-150 89.38,-144 95.38,-144 95.38,-144 128.62,-144 128.62,-144 134.62,-144 140.62,-150 140.62,-156 140.62,-156 140.62,-168 140.62,-168 140.62,-174 134.62,-180 128.62,-180"/>
<text xml:space="preserve" text-anchor="middle" x="112" y="-158.12" font-family="sans" font-size="10.00">orf_report</text>
</g>
<!-- 10&#45;&gt;1 -->
<g id="edge2" class="edge">
<title>10&#45;&gt;1</title>
<path fill="none" stroke="grey" stroke-width="2" d="M112,-143.34C112,-136.75 112,-129.08 112,-121.67"/>
<polygon fill="grey" stroke="grey" stroke-width="2" points="115.5,-121.93 112,-111.93 108.5,-121.93 115.5,-121.93"/>
</g>
<!-- 11&#45;&gt;10 -->
<g id="edge12" class="edge">
<title>11&#45;&gt;10</title>
<path fill="none" stroke="grey" stroke-width="2" d="M84.31,-431.29C74.65,-391.72 55.27,-293.53 78,-216 80.49,-207.5 84.81,-199.07 89.55,-191.52"/>
<polygon fill="grey" stroke="grey" stroke-width="2" points="92.4,-193.56 95.18,-183.34 86.63,-189.6 92.4,-193.56"/>
</g>
<!-- 13 -->
<g id="node14" class="node">
<title>13</title>
<path fill="none" stroke="#59d856" stroke-width="2" d="M147.25,-396C147.25,-396 114.75,-396 114.75,-396 108.75,-396 102.75,-390 102.75,-384 102.75,-384 102.75,-372 102.75,-372 102.75,-366 108.75,-360 114.75,-360 114.75,-360 147.25,-360 147.25,-360 153.25,-360 159.25,-366 159.25,-372 159.25,-372 159.25,-384 159.25,-384 159.25,-390 153.25,-396 147.25,-396"/>
<text xml:space="preserve" text-anchor="middle" x="131" y="-374.12" font-family="sans" font-size="10.00">filter_orfs</text>
</g>
<!-- 11&#45;&gt;13 -->
<g id="edge18" class="edge">
<title>11&#45;&gt;13</title>
<path fill="none" stroke="grey" stroke-width="2" d="M99.6,-431.34C103.84,-424.26 108.85,-415.92 113.6,-408"/>
<polygon fill="grey" stroke="grey" stroke-width="2" points="116.56,-409.87 118.7,-399.5 110.56,-406.27 116.56,-409.87"/>
</g>
<!-- 12 -->
<g id="node13" class="node">
<title>12</title>
<path fill="none" stroke="#d8b456" stroke-width="2" d="M193.38,-252C193.38,-252 98.62,-252 98.62,-252 92.62,-252 86.62,-246 86.62,-240 86.62,-240 86.62,-228 86.62,-228 86.62,-222 92.62,-216 98.62,-216 98.62,-216 193.38,-216 193.38,-216 199.38,-216 205.38,-222 205.38,-228 205.38,-228 205.38,-240 205.38,-240 205.38,-246 199.38,-252 193.38,-252"/>
<text xml:space="preserve" text-anchor="middle" x="146" y="-230.12" font-family="sans" font-size="10.00">classify_orf_confidence</text>
</g>
<!-- 12&#45;&gt;10 -->
<g id="edge13" class="edge">
<title>12&#45;&gt;10</title>
<path fill="none" stroke="grey" stroke-width="2" d="M137.42,-215.34C134.06,-208.43 130.12,-200.31 126.36,-192.56"/>
<polygon fill="grey" stroke="grey" stroke-width="2" points="129.54,-191.09 122.02,-183.62 123.24,-194.15 129.54,-191.09"/>
</g>
<!-- 13&#45;&gt;12 -->
<g id="edge15" class="edge">
<title>13&#45;&gt;12</title>
<path fill="none" stroke="grey" stroke-width="2" d="M115.01,-359.3C107.35,-349.62 98.99,-336.97 95,-324 90.3,-308.71 89.02,-302.84 95,-288 98.89,-278.34 105.48,-269.46 112.65,-261.83"/>
<polygon fill="grey" stroke="grey" stroke-width="2" points="114.97,-264.46 119.72,-254.99 110.1,-259.44 114.97,-264.46"/>
</g>
<!-- 14 -->
<g id="node15" class="node">
<title>14</title>
<path fill="none" stroke="#d6d856" stroke-width="2" d="M217.75,-324C217.75,-324 116.25,-324 116.25,-324 110.25,-324 104.25,-318 104.25,-312 104.25,-312 104.25,-300 104.25,-300 104.25,-294 110.25,-288 116.25,-288 116.25,-288 217.75,-288 217.75,-288 223.75,-288 229.75,-294 229.75,-300 229.75,-300 229.75,-312 229.75,-312 229.75,-318 223.75,-324 217.75,-324"/>
<text xml:space="preserve" text-anchor="middle" x="167" y="-302.12" font-family="sans" font-size="10.00">coding_potential_intrinsic</text>
</g>
<!-- 13&#45;&gt;14 -->
<g id="edge19" class="edge">
<title>13&#45;&gt;14</title>
<path fill="none" stroke="grey" stroke-width="2" d="M140.08,-359.34C143.68,-352.34 147.91,-344.12 151.94,-336.28"/>
<polygon fill="grey" stroke="grey" stroke-width="2" points="154.95,-338.09 156.41,-327.59 148.72,-334.89 154.95,-338.09"/>
</g>
<!-- 15 -->
<g id="node16" class="node">
<title>15</title>
<path fill="none" stroke="#567bd8" stroke-width="2" d="M328.25,-324C328.25,-324 259.75,-324 259.75,-324 253.75,-324 247.75,-318 247.75,-312 247.75,-312 247.75,-300 247.75,-300 247.75,-294 253.75,-288 259.75,-288 259.75,-288 328.25,-288 328.25,-288 334.25,-288 340.25,-294 340.25,-300 340.25,-300 340.25,-312 340.25,-312 340.25,-318 334.25,-324 328.25,-324"/>
<text xml:space="preserve" text-anchor="middle" x="294" y="-302.12" font-family="sans" font-size="10.00">rpsblast_domains</text>
</g>
<!-- 13&#45;&gt;15 -->
<g id="edge20" class="edge">
<title>13&#45;&gt;15</title>
<path fill="none" stroke="grey" stroke-width="2" d="M160.14,-364.49C182.38,-354.94 213.63,-341.52 240.34,-330.04"/>
<polygon fill="grey" stroke="grey" stroke-width="2" points="241.66,-333.29 249.47,-326.12 238.9,-326.85 241.66,-333.29"/>
</g>
<!-- 14&#45;&gt;12 -->
<g id="edge16" class="edge">
<title>14&#45;&gt;12</title>
<path fill="none" stroke="grey" stroke-width="2" d="M161.7,-287.34C159.68,-280.59 157.31,-272.69 155.03,-265.11"/>
<polygon fill="grey" stroke="grey" stroke-width="2" points="158.47,-264.37 152.24,-255.8 151.76,-266.39 158.47,-264.37"/>
</g>
<!-- 15&#45;&gt;12 -->
<g id="edge17" class="edge">
<title>15&#45;&gt;12</title>
<path fill="none" stroke="grey" stroke-width="2" d="M256.27,-287.15C237.81,-278.43 215.36,-267.81 195.54,-258.43"/>
<polygon fill="grey" stroke="grey" stroke-width="2" points="197.19,-255.34 186.65,-254.23 194.2,-261.67 197.19,-255.34"/>
</g>
</g>
</svg>
