<?xml version="1.0" encoding="UTF-8" standalone="no"?>
<!DOCTYPE svg PUBLIC "-//W3C//DTD SVG 1.1//EN"
 "http://www.w3.org/Graphics/SVG/1.1/DTD/svg11.dtd">
<!-- Generated by graphviz version 14.0.4 (20251115.1723)
 -->
<!-- Title: snakemake_dag Pages: 1 -->
<svg width="89pt" height="188pt"
 viewBox="0.00 0.00 89.00 188.00" xmlns="http://www.w3.org/2000/svg" xmlns:xlink="http://www.w3.org/1999/xlink">
<g id="graph0" class="graph" transform="scale(1 1) rotate(0) translate(4 184)">
<title>snakemake_dag</title>
<polygon fill="white" stroke="none" points="-4,4 -4,-184 85.25,-184 85.25,4 -4,4"/>
<!-- 0 -->
<g id="node1" class="node">
<title>0</title>
<path fill="none" stroke="#d85656" stroke-width="2" d="M55.62,-36C55.62,-36 25.62,-36 25.62,-36 19.63,-36 13.62,-30 13.62,-24 13.62,-24 13.62,-12 13.62,-12 13.62,-6 19.62,0 25.62,0 25.62,0 55.62,0 55.62,0 61.62,0 67.62,-6 67.62,-12 67.62,-12 67.62,-24 67.62,-24 67.62,-30 61.62,-36 55.62,-36"/>
<text xml:space="preserve" text-anchor="middle" x="40.62" y="-14.12" font-family="sans" font-size="10.00">all</text>
</g>
<!-- 1 -->
<g id="node2" class="node">
<title>1</title>
<path fill="none" stroke="#56d8a9" stroke-width="2" d="M55.62,-108C55.62,-108 25.62,-108 25.62,-108 19.63,-108 13.62,-102 13.62,-96 13.62,-96 13.62,-84 13.62,-84 13.62,-78 19.62,-72 25.62,-72 25.62,-72 55.62,-72 55.62,-72 61.62,-72 67.62,-78 67.62,-84 67.62,-84 67.62,-96 67.62,-96 67.62,-102 61.62,-108 55.62,-108"/>
<text xml:space="preserve" text-anchor="middle" x="40.62" y="-86.12" font-family="sans" font-size="10.00">final</text>
</g>
<!-- 1&#45;&gt;0 -->
<g id="edge1" class="edge">
<title>1&#45;&gt;0</title>
<path fill="none" stroke="grey" stroke-width="2" d="M40.62,-71.34C40.62,-64.75 40.62,-57.08 40.62,-49.67"/>
<polygon fill="grey" stroke="grey" stroke-width="2" points="44.13,-49.93 40.63,-39.93 37.13,-49.93 44.13,-49.93"/>
</g>
<!-- 2 -->
<g id="node3" class="node">
<title>2</title>
<path fill="none" stroke="#afd856" stroke-width="2" d="M69.25,-180C69.25,-180 12,-180 12,-180 6,-180 0,-174 0,-168 0,-168 0,-156 0,-156 0,-150 6,-144 12,-144 12,-144 69.25,-144 69.25,-144 75.25,-144 81.25,-150 81.25,-156 81.25,-156 81.25,-168 81.25,-168 81.25,-174 75.25,-180 69.25,-180"/>
<text xml:space="preserve" text-anchor="middle" x="40.62" y="-158.12" font-family="sans" font-size="10.00">build_database</text>
</g>
<!-- 2&#45;&gt;1 -->
<g id="edge2" class="edge">
<title>2&#45;&gt;1</title>
<path fill="none" stroke="grey" stroke-width="2" d="M40.62,-143.34C40.62,-136.75 40.62,-129.08 40.62,-121.67"/>
<polygon fill="grey" stroke="grey" stroke-width="2" points="44.13,-121.93 40.63,-111.93 37.13,-121.93 44.13,-121.93"/>
</g>
</g>
</svg>
