<?xml version="1.0" encoding="UTF-8" standalone="no"?>
<!DOCTYPE svg PUBLIC "-//W3C//DTD SVG 1.1//EN"
 "http://www.w3.org/Graphics/SVG/1.1/DTD/svg11.dtd">
<!-- Generated by graphviz version 12.2.1 (20241206.2353)
 -->
<!-- Title: snakemake_dag Pages: 1 -->
<svg width="110pt" height="260pt"
 viewBox="0.00 0.00 109.50 260.00" xmlns="http://www.w3.org/2000/svg" xmlns:xlink="http://www.w3.org/1999/xlink">
<g id="graph0" class="graph" transform="scale(1 1) rotate(0) translate(4 256)">
<title>snakemake_dag</title>
<polygon fill="white" stroke="none" points="-4,4 -4,-256 105.5,-256 105.5,4 -4,4"/>
<!-- 0 -->
<g id="node1" class="node">
<title>0</title>
<path fill="none" stroke="#d85656" stroke-width="2" d="M65.75,-36C65.75,-36 35.75,-36 35.75,-36 29.75,-36 23.75,-30 23.75,-24 23.75,-24 23.75,-12 23.75,-12 23.75,-6 29.75,0 35.75,0 35.75,0 65.75,0 65.75,0 71.75,0 77.75,-6 77.75,-12 77.75,-12 77.75,-24 77.75,-24 77.75,-30 71.75,-36 65.75,-36"/>
<text text-anchor="middle" x="50.75" y="-14.12" font-family="sans" font-size="10.00">all</text>
</g>
<!-- 1 -->
<g id="node2" class="node">
<title>1</title>
<path fill="none" stroke="#59d856" stroke-width="2" d="M65.75,-108C65.75,-108 35.75,-108 35.75,-108 29.75,-108 23.75,-102 23.75,-96 23.75,-96 23.75,-84 23.75,-84 23.75,-78 29.75,-72 35.75,-72 35.75,-72 65.75,-72 65.75,-72 71.75,-72 77.75,-78 77.75,-84 77.75,-84 77.75,-96 77.75,-96 77.75,-102 71.75,-108 65.75,-108"/>
<text text-anchor="middle" x="50.75" y="-86.12" font-family="sans" font-size="10.00">final</text>
</g>
<!-- 1&#45;&gt;0 -->
<g id="edge1" class="edge">
<title>1&#45;&gt;0</title>
<path fill="none" stroke="grey" stroke-width="2" d="M50.75,-71.34C50.75,-64.75 50.75,-57.08 50.75,-49.67"/>
<polygon fill="grey" stroke="grey" stroke-width="2" points="54.25,-49.93 50.75,-39.93 47.25,-49.93 54.25,-49.93"/>
</g>
<!-- 2 -->
<g id="node3" class="node">
<title>2</title>
<path fill="none" stroke="#56d8d8" stroke-width="2" d="M89.5,-180C89.5,-180 12,-180 12,-180 6,-180 0,-174 0,-168 0,-168 0,-156 0,-156 0,-150 6,-144 12,-144 12,-144 89.5,-144 89.5,-144 95.5,-144 101.5,-150 101.5,-156 101.5,-156 101.5,-168 101.5,-168 101.5,-174 95.5,-180 89.5,-180"/>
<text text-anchor="middle" x="50.75" y="-158.12" font-family="sans" font-size="10.00">run_repeatmodeler2</text>
</g>
<!-- 2&#45;&gt;1 -->
<g id="edge2" class="edge">
<title>2&#45;&gt;1</title>
<path fill="none" stroke="grey" stroke-width="2" d="M50.75,-143.34C50.75,-136.75 50.75,-129.08 50.75,-121.67"/>
<polygon fill="grey" stroke="grey" stroke-width="2" points="54.25,-121.93 50.75,-111.93 47.25,-121.93 54.25,-121.93"/>
</g>
<!-- 3 -->
<g id="node4" class="node">
<title>3</title>
<path fill="none" stroke="#d6d856" stroke-width="2" d="M79.38,-252C79.38,-252 22.12,-252 22.12,-252 16.13,-252 10.12,-246 10.12,-240 10.12,-240 10.12,-228 10.12,-228 10.12,-222 16.12,-216 22.12,-216 22.12,-216 79.38,-216 79.38,-216 85.38,-216 91.38,-222 91.38,-228 91.38,-228 91.38,-240 91.38,-240 91.38,-246 85.38,-252 79.38,-252"/>
<text text-anchor="middle" x="50.75" y="-230.12" font-family="sans" font-size="10.00">build_database</text>
</g>
<!-- 3&#45;&gt;2 -->
<g id="edge3" class="edge">
<title>3&#45;&gt;2</title>
<path fill="none" stroke="grey" stroke-width="2" d="M50.75,-215.34C50.75,-208.75 50.75,-201.08 50.75,-193.67"/>
<polygon fill="grey" stroke="grey" stroke-width="2" points="54.25,-193.93 50.75,-183.93 47.25,-193.93 54.25,-193.93"/>
</g>
</g>
</svg>
