<?xml version="1.0" encoding="UTF-8" standalone="no"?>
<!DOCTYPE svg PUBLIC "-//W3C//DTD SVG 1.1//EN"
 "http://www.w3.org/Graphics/SVG/1.1/DTD/svg11.dtd">
<!-- Generated by graphviz version 14.1.1 (20260118.1130)
 -->
<!-- Title: snakemake_dag Pages: 1 -->
<svg width="308pt" height="548pt"
 viewBox="0.00 0.00 308.00 548.00" xmlns="http://www.w3.org/2000/svg" xmlns:xlink="http://www.w3.org/1999/xlink">
<g id="graph0" class="graph" transform="scale(1 1) rotate(0) translate(4 544)">
<title>snakemake_dag</title>
<polygon fill="white" stroke="none" points="-4,4 -4,-544 303.62,-544 303.62,4 -4,4"/>
<!-- 0 -->
<g id="node1" class="node">
<title>0</title>
<path fill="none" stroke="#d85656" stroke-width="2" d="M193.88,-36C193.88,-36 163.88,-36 163.88,-36 157.88,-36 151.88,-30 151.88,-24 151.88,-24 151.88,-12 151.88,-12 151.88,-6 157.88,0 163.88,0 163.88,0 193.88,0 193.88,0 199.88,0 205.88,-6 205.88,-12 205.88,-12 205.88,-24 205.88,-24 205.88,-30 199.88,-36 193.88,-36"/>
<text xml:space="preserve" text-anchor="middle" x="178.88" y="-15.62" font-family="sans" font-size="10.00">all</text>
</g>
<!-- 1 -->
<g id="node2" class="node">
<title>1</title>
<path fill="none" stroke="#59d856" stroke-width="2" d="M193.88,-108C193.88,-108 163.88,-108 163.88,-108 157.88,-108 151.88,-102 151.88,-96 151.88,-96 151.88,-84 151.88,-84 151.88,-78 157.88,-72 163.88,-72 163.88,-72 193.88,-72 193.88,-72 199.88,-72 205.88,-78 205.88,-84 205.88,-84 205.88,-96 205.88,-96 205.88,-102 199.88,-108 193.88,-108"/>
<text xml:space="preserve" text-anchor="middle" x="178.88" y="-87.62" font-family="sans" font-size="10.00">final</text>
</g>
<!-- 1&#45;&gt;0 -->
<g id="edge1" class="edge">
<title>1&#45;&gt;0</title>
<path fill="none" stroke="grey" stroke-width="2" d="M178.88,-71.34C178.88,-64.75 178.88,-57.08 178.88,-49.67"/>
<polygon fill="grey" stroke="grey" stroke-width="2" points="182.38,-49.93 178.88,-39.93 175.38,-49.93 182.38,-49.93"/>
</g>
<!-- 2 -->
<g id="node3" class="node">
<title>2</title>
<path fill="none" stroke="#56d8c1" stroke-width="2" d="M287.62,-180C287.62,-180 192.12,-180 192.12,-180 186.12,-180 180.12,-174 180.12,-168 180.12,-168 180.12,-156 180.12,-156 180.12,-150 186.12,-144 192.12,-144 192.12,-144 287.62,-144 287.62,-144 293.62,-144 299.62,-150 299.62,-156 299.62,-156 299.62,-168 299.62,-168 299.62,-174 293.62,-180 287.62,-180"/>
<text xml:space="preserve" text-anchor="middle" x="239.88" y="-159.62" font-family="sans" font-size="10.00">plot_repeat_landscape</text>
</g>
<!-- 2&#45;&gt;1 -->
<g id="edge2" class="edge">
<title>2&#45;&gt;1</title>
<path fill="none" stroke="grey" stroke-width="2" d="M224.48,-143.34C217.96,-135.85 210.2,-126.95 202.95,-118.63"/>
<polygon fill="grey" stroke="grey" stroke-width="2" points="205.67,-116.42 196.46,-111.18 200.39,-121.02 205.67,-116.42"/>
</g>
<!-- 3 -->
<g id="node4" class="node">
<title>3</title>
<path fill="none" stroke="#56c1d8" stroke-width="2" d="M234.5,-324C234.5,-324 177.25,-324 177.25,-324 171.25,-324 165.25,-318 165.25,-312 165.25,-312 165.25,-300 165.25,-300 165.25,-294 171.25,-288 177.25,-288 177.25,-288 234.5,-288 234.5,-288 240.5,-288 246.5,-294 246.5,-300 246.5,-300 246.5,-312 246.5,-312 246.5,-318 240.5,-324 234.5,-324"/>
<text xml:space="preserve" text-anchor="middle" x="205.88" y="-303.62" font-family="sans" font-size="10.00">repeatmasker</text>
</g>
<!-- 3&#45;&gt;2 -->
<g id="edge4" class="edge">
<title>3&#45;&gt;2</title>
<path fill="none" stroke="grey" stroke-width="2" d="M211.17,-287.41C214.18,-277.13 217.93,-263.88 220.88,-252 225.68,-232.64 230.36,-210.73 233.88,-193.49"/>
<polygon fill="grey" stroke="grey" stroke-width="2" points="237.29,-194.27 235.83,-183.78 230.43,-192.89 237.29,-194.27"/>
</g>
<!-- 8 -->
<g id="node9" class="node">
<title>8</title>
<path fill="none" stroke="#56d88a" stroke-width="2" d="M200,-252C200,-252 145.75,-252 145.75,-252 139.75,-252 133.75,-246 133.75,-240 133.75,-240 133.75,-228 133.75,-228 133.75,-222 139.75,-216 145.75,-216 145.75,-216 200,-216 200,-216 206,-216 212,-222 212,-228 212,-228 212,-240 212,-240 212,-246 206,-252 200,-252"/>
<text xml:space="preserve" text-anchor="middle" x="172.88" y="-231.62" font-family="sans" font-size="10.00">make_te_bed</text>
</g>
<!-- 3&#45;&gt;8 -->
<g id="edge10" class="edge">
<title>3&#45;&gt;8</title>
<path fill="none" stroke="grey" stroke-width="2" d="M197.55,-287.34C194.29,-280.43 190.46,-272.31 186.81,-264.56"/>
<polygon fill="grey" stroke="grey" stroke-width="2" points="190.04,-263.19 182.61,-255.64 183.7,-266.18 190.04,-263.19"/>
</g>
<!-- 4 -->
<g id="node5" class="node">
<title>4</title>
<path fill="none" stroke="#d8bc56" stroke-width="2" d="M223.62,-396C223.62,-396 188.12,-396 188.12,-396 182.12,-396 176.12,-390 176.12,-384 176.12,-384 176.12,-372 176.12,-372 176.12,-366 182.12,-360 188.12,-360 188.12,-360 223.62,-360 223.62,-360 229.62,-360 235.62,-366 235.62,-372 235.62,-372 235.62,-384 235.62,-384 235.62,-390 229.62,-396 223.62,-396"/>
<text xml:space="preserve" text-anchor="middle" x="205.88" y="-375.62" font-family="sans" font-size="10.00">collect_te</text>
</g>
<!-- 4&#45;&gt;3 -->
<g id="edge5" class="edge">
<title>4&#45;&gt;3</title>
<path fill="none" stroke="grey" stroke-width="2" d="M205.88,-359.34C205.88,-352.75 205.88,-345.08 205.88,-337.67"/>
<polygon fill="grey" stroke="grey" stroke-width="2" points="209.38,-337.93 205.88,-327.93 202.38,-337.93 209.38,-337.93"/>
</g>
<!-- 5 -->
<g id="node6" class="node">
<title>5</title>
<path fill="none" stroke="#568ad8" stroke-width="2" d="M237.12,-468C237.12,-468 174.62,-468 174.62,-468 168.62,-468 162.62,-462 162.62,-456 162.62,-456 162.62,-444 162.62,-444 162.62,-438 168.62,-432 174.62,-432 174.62,-432 237.12,-432 237.12,-432 243.12,-432 249.12,-438 249.12,-444 249.12,-444 249.12,-456 249.12,-456 249.12,-462 243.12,-468 237.12,-468"/>
<text xml:space="preserve" text-anchor="middle" x="205.88" y="-447.62" font-family="sans" font-size="10.00">repeatmodeler</text>
</g>
<!-- 5&#45;&gt;4 -->
<g id="edge6" class="edge">
<title>5&#45;&gt;4</title>
<path fill="none" stroke="grey" stroke-width="2" d="M205.88,-431.34C205.88,-424.75 205.88,-417.08 205.88,-409.67"/>
<polygon fill="grey" stroke="grey" stroke-width="2" points="209.38,-409.93 205.88,-399.93 202.38,-409.93 209.38,-409.93"/>
</g>
<!-- 6 -->
<g id="node7" class="node">
<title>6</title>
<path fill="none" stroke="#d88d56" stroke-width="2" d="M236.38,-540C236.38,-540 175.38,-540 175.38,-540 169.38,-540 163.38,-534 163.38,-528 163.38,-528 163.38,-516 163.38,-516 163.38,-510 169.38,-504 175.38,-504 175.38,-504 236.38,-504 236.38,-504 242.38,-504 248.38,-510 248.38,-516 248.38,-516 248.38,-528 248.38,-528 248.38,-534 242.38,-540 236.38,-540"/>
<text xml:space="preserve" text-anchor="middle" x="205.88" y="-519.62" font-family="sans" font-size="10.00">build_database</text>
</g>
<!-- 6&#45;&gt;5 -->
<g id="edge7" class="edge">
<title>6&#45;&gt;5</title>
<path fill="none" stroke="grey" stroke-width="2" d="M205.88,-503.34C205.88,-496.75 205.88,-489.08 205.88,-481.67"/>
<polygon fill="grey" stroke="grey" stroke-width="2" points="209.38,-481.93 205.88,-471.93 202.38,-481.93 209.38,-481.93"/>
</g>
<!-- 7 -->
<g id="node8" class="node">
<title>7</title>
<path fill="none" stroke="#88d856" stroke-width="2" d="M150.25,-180C150.25,-180 85.5,-180 85.5,-180 79.5,-180 73.5,-174 73.5,-168 73.5,-168 73.5,-156 73.5,-156 73.5,-150 79.5,-144 85.5,-144 85.5,-144 150.25,-144 150.25,-144 156.25,-144 162.25,-150 162.25,-156 162.25,-156 162.25,-168 162.25,-168 162.25,-174 156.25,-180 150.25,-180"/>
<text xml:space="preserve" text-anchor="middle" x="117.88" y="-159.62" font-family="sans" font-size="10.00">extract_te_fasta</text>
</g>
<!-- 7&#45;&gt;1 -->
<g id="edge3" class="edge">
<title>7&#45;&gt;1</title>
<path fill="none" stroke="grey" stroke-width="2" d="M133.27,-143.34C139.79,-135.85 147.55,-126.95 154.8,-118.63"/>
<polygon fill="grey" stroke="grey" stroke-width="2" points="157.36,-121.02 161.29,-111.18 152.08,-116.42 157.36,-121.02"/>
</g>
<!-- 8&#45;&gt;7 -->
<g id="edge8" class="edge">
<title>8&#45;&gt;7</title>
<path fill="none" stroke="grey" stroke-width="2" d="M159,-215.34C153.18,-207.93 146.27,-199.14 139.8,-190.9"/>
<polygon fill="grey" stroke="grey" stroke-width="2" points="142.74,-188.98 133.81,-183.28 137.24,-193.31 142.74,-188.98"/>
</g>
<!-- 9 -->
<g id="node10" class="node">
<title>9</title>
<path fill="none" stroke="#bed856" stroke-width="2" d="M103.75,-252C103.75,-252 12,-252 12,-252 6,-252 0,-246 0,-240 0,-240 0,-228 0,-228 0,-222 6,-216 12,-216 12,-216 103.75,-216 103.75,-216 109.75,-216 115.75,-222 115.75,-228 115.75,-228 115.75,-240 115.75,-240 115.75,-246 109.75,-252 103.75,-252"/>
<text xml:space="preserve" text-anchor="middle" x="57.88" y="-231.62" font-family="sans" font-size="10.00">decompress_genome</text>
</g>
<!-- 9&#45;&gt;7 -->
<g id="edge9" class="edge">
<title>9&#45;&gt;7</title>
<path fill="none" stroke="grey" stroke-width="2" d="M73.02,-215.34C79.43,-207.85 87.06,-198.95 94.19,-190.63"/>
<polygon fill="grey" stroke="grey" stroke-width="2" points="96.71,-193.07 100.56,-183.2 91.4,-188.51 96.71,-193.07"/>
</g>
</g>
</svg>
