<?xml version="1.0" encoding="UTF-8" standalone="no"?>
<!DOCTYPE svg PUBLIC "-//W3C//DTD SVG 1.1//EN"
 "http://www.w3.org/Graphics/SVG/1.1/DTD/svg11.dtd">
<!-- Generated by graphviz version 14.1.1 (0)
 -->
<!-- Title: snakemake_dag Pages: 1 -->
<svg width="465pt" height="908pt"
 viewBox="0.00 0.00 465.00 908.00" xmlns="http://www.w3.org/2000/svg" xmlns:xlink="http://www.w3.org/1999/xlink">
<g id="graph0" class="graph" transform="scale(1 1) rotate(0) translate(4 904)">
<title>snakemake_dag</title>
<polygon fill="white" stroke="none" points="-4,4 -4,-904 461.24,-904 461.24,4 -4,4"/>
<!-- 0 -->
<g id="node1" class="node">
<title>0</title>
<path fill="none" stroke="#d87556" stroke-width="2" d="M348.49,-36C348.49,-36 318.49,-36 318.49,-36 312.49,-36 306.49,-30 306.49,-24 306.49,-24 306.49,-12 306.49,-12 306.49,-6 312.49,0 318.49,0 318.49,0 348.49,0 348.49,0 354.49,0 360.49,-6 360.49,-12 360.49,-12 360.49,-24 360.49,-24 360.49,-30 354.49,-36 348.49,-36"/>
<text xml:space="preserve" text-anchor="middle" x="333.49" y="-14.12" font-family="sans" font-size="10.00">all</text>
</g>
<!-- 1 -->
<g id="node2" class="node">
<title>1</title>
<path fill="none" stroke="#56d89a" stroke-width="2" d="M348.49,-108C348.49,-108 318.49,-108 318.49,-108 312.49,-108 306.49,-102 306.49,-96 306.49,-96 306.49,-84 306.49,-84 306.49,-78 312.49,-72 318.49,-72 318.49,-72 348.49,-72 348.49,-72 354.49,-72 360.49,-78 360.49,-84 360.49,-84 360.49,-96 360.49,-96 360.49,-102 354.49,-108 348.49,-108"/>
<text xml:space="preserve" text-anchor="middle" x="333.49" y="-86.12" font-family="sans" font-size="10.00">final</text>
</g>
<!-- 1&#45;&gt;0 -->
<g id="edge1" class="edge">
<title>1&#45;&gt;0</title>
<path fill="none" stroke="grey" stroke-width="2" d="M333.49,-71.34C333.49,-64.75 333.49,-57.08 333.49,-49.67"/>
<polygon fill="grey" stroke="grey" stroke-width="2" points="336.99,-49.93 333.49,-39.93 329.99,-49.93 336.99,-49.93"/>
</g>
<!-- 2 -->
<g id="node3" class="node">
<title>2</title>
<path fill="none" stroke="#56c1d8" stroke-width="2" d="M445.24,-540C445.24,-540 355.74,-540 355.74,-540 349.74,-540 343.74,-534 343.74,-528 343.74,-528 343.74,-516 343.74,-516 343.74,-510 349.74,-504 355.74,-504 355.74,-504 445.24,-504 445.24,-504 451.24,-504 457.24,-510 457.24,-516 457.24,-516 457.24,-528 457.24,-528 457.24,-534 451.24,-540 445.24,-540"/>
<text xml:space="preserve" text-anchor="middle" x="400.49" y="-518.12" font-family="sans" font-size="10.00">plot_repeat_landscape</text>
</g>
<!-- 2&#45;&gt;1 -->
<g id="edge3" class="edge">
<title>2&#45;&gt;1</title>
<path fill="none" stroke="grey" stroke-width="2" d="M401.32,-503.07C402.49,-476.14 404.49,-423.64 404.49,-379 404.49,-379 404.49,-379 404.49,-233 404.49,-192.55 404.64,-179.63 385.49,-144 380.37,-134.47 373.02,-125.5 365.46,-117.74"/>
<polygon fill="grey" stroke="grey" stroke-width="2" points="368.08,-115.41 358.44,-111.01 363.24,-120.46 368.08,-115.41"/>
</g>
<!-- 3 -->
<g id="node4" class="node">
<title>3</title>
<path fill="none" stroke="#56a9d8" stroke-width="2" d="M363.12,-684C363.12,-684 311.87,-684 311.87,-684 305.87,-684 299.87,-678 299.87,-672 299.87,-672 299.87,-660 299.87,-660 299.87,-654 305.87,-648 311.87,-648 311.87,-648 363.12,-648 363.12,-648 369.12,-648 375.12,-654 375.12,-660 375.12,-660 375.12,-672 375.12,-672 375.12,-678 369.12,-684 363.12,-684"/>
<text xml:space="preserve" text-anchor="middle" x="337.49" y="-662.12" font-family="sans" font-size="10.00">repeatmasker</text>
</g>
<!-- 3&#45;&gt;2 -->
<g id="edge5" class="edge">
<title>3&#45;&gt;2</title>
<path fill="none" stroke="grey" stroke-width="2" d="M345.47,-647.02C356.03,-623.22 374.77,-580.97 387.41,-552.48"/>
<polygon fill="grey" stroke="grey" stroke-width="2" points="390.49,-554.17 391.35,-543.61 384.09,-551.33 390.49,-554.17"/>
</g>
<!-- 10 -->
<g id="node11" class="node">
<title>10</title>
<path fill="none" stroke="#56d8b9" stroke-width="2" d="M330.74,-612C330.74,-612 280.24,-612 280.24,-612 274.24,-612 268.24,-606 268.24,-600 268.24,-600 268.24,-588 268.24,-588 268.24,-582 274.24,-576 280.24,-576 280.24,-576 330.74,-576 330.74,-576 336.74,-576 342.74,-582 342.74,-588 342.74,-588 342.74,-600 342.74,-600 342.74,-606 336.74,-612 330.74,-612"/>
<text xml:space="preserve" text-anchor="middle" x="305.49" y="-590.12" font-family="sans" font-size="10.00">make_te_bed</text>
</g>
<!-- 3&#45;&gt;10 -->
<g id="edge14" class="edge">
<title>3&#45;&gt;10</title>
<path fill="none" stroke="grey" stroke-width="2" d="M329.42,-647.34C326.26,-640.43 322.55,-632.31 319,-624.56"/>
<polygon fill="grey" stroke="grey" stroke-width="2" points="322.27,-623.29 314.93,-615.65 315.91,-626.2 322.27,-623.29"/>
</g>
<!-- 4 -->
<g id="node5" class="node">
<title>4</title>
<path fill="none" stroke="#80d856" stroke-width="2" d="M354.49,-756C354.49,-756 320.49,-756 320.49,-756 314.49,-756 308.49,-750 308.49,-744 308.49,-744 308.49,-732 308.49,-732 308.49,-726 314.49,-720 320.49,-720 320.49,-720 354.49,-720 354.49,-720 360.49,-720 366.49,-726 366.49,-732 366.49,-732 366.49,-744 366.49,-744 366.49,-750 360.49,-756 354.49,-756"/>
<text xml:space="preserve" text-anchor="middle" x="337.49" y="-734.12" font-family="sans" font-size="10.00">collect_te</text>
</g>
<!-- 4&#45;&gt;3 -->
<g id="edge6" class="edge">
<title>4&#45;&gt;3</title>
<path fill="none" stroke="grey" stroke-width="2" d="M337.49,-719.34C337.49,-712.75 337.49,-705.08 337.49,-697.67"/>
<polygon fill="grey" stroke="grey" stroke-width="2" points="340.99,-697.93 337.49,-687.93 333.99,-697.93 340.99,-697.93"/>
</g>
<!-- 5 -->
<g id="node6" class="node">
<title>5</title>
<path fill="none" stroke="#568ad8" stroke-width="2" d="M364.24,-828C364.24,-828 310.74,-828 310.74,-828 304.74,-828 298.74,-822 298.74,-816 298.74,-816 298.74,-804 298.74,-804 298.74,-798 304.74,-792 310.74,-792 310.74,-792 364.24,-792 364.24,-792 370.24,-792 376.24,-798 376.24,-804 376.24,-804 376.24,-816 376.24,-816 376.24,-822 370.24,-828 364.24,-828"/>
<text xml:space="preserve" text-anchor="middle" x="337.49" y="-806.12" font-family="sans" font-size="10.00">repeatmodeler</text>
</g>
<!-- 5&#45;&gt;4 -->
<g id="edge7" class="edge">
<title>5&#45;&gt;4</title>
<path fill="none" stroke="grey" stroke-width="2" d="M337.49,-791.34C337.49,-784.75 337.49,-777.08 337.49,-769.67"/>
<polygon fill="grey" stroke="grey" stroke-width="2" points="340.99,-769.93 337.49,-759.93 333.99,-769.93 340.99,-769.93"/>
</g>
<!-- 6 -->
<g id="node7" class="node">
<title>6</title>
<path fill="none" stroke="#d88d56" stroke-width="2" d="M366.12,-900C366.12,-900 308.87,-900 308.87,-900 302.87,-900 296.87,-894 296.87,-888 296.87,-888 296.87,-876 296.87,-876 296.87,-870 302.87,-864 308.87,-864 308.87,-864 366.12,-864 366.12,-864 372.12,-864 378.12,-870 378.12,-876 378.12,-876 378.12,-888 378.12,-888 378.12,-894 372.12,-900 366.12,-900"/>
<text xml:space="preserve" text-anchor="middle" x="337.49" y="-878.12" font-family="sans" font-size="10.00">build_database</text>
</g>
<!-- 6&#45;&gt;5 -->
<g id="edge8" class="edge">
<title>6&#45;&gt;5</title>
<path fill="none" stroke="grey" stroke-width="2" d="M337.49,-863.34C337.49,-856.75 337.49,-849.08 337.49,-841.67"/>
<polygon fill="grey" stroke="grey" stroke-width="2" points="340.99,-841.93 337.49,-831.93 333.99,-841.93 340.99,-841.93"/>
</g>
<!-- 7 -->
<g id="node8" class="node">
<title>7</title>
<path fill="none" stroke="#56d8d0" stroke-width="2" d="M163.12,-180C163.12,-180 129.87,-180 129.87,-180 123.87,-180 117.87,-174 117.87,-168 117.87,-168 117.87,-156 117.87,-156 117.87,-150 123.87,-144 129.87,-144 129.87,-144 163.12,-144 163.12,-144 169.12,-144 175.12,-150 175.12,-156 175.12,-156 175.12,-168 175.12,-168 175.12,-174 169.12,-180 163.12,-180"/>
<text xml:space="preserve" text-anchor="middle" x="146.49" y="-158.12" font-family="sans" font-size="10.00">orf_report</text>
</g>
<!-- 7&#45;&gt;1 -->
<g id="edge2" class="edge">
<title>7&#45;&gt;1</title>
<path fill="none" stroke="grey" stroke-width="2" d="M175.71,-150.06C207.5,-138.16 258.51,-119.07 293.89,-105.82"/>
<polygon fill="grey" stroke="grey" stroke-width="2" points="294.72,-109.25 302.86,-102.47 292.27,-102.69 294.72,-109.25"/>
</g>
<!-- 8 -->
<g id="node9" class="node">
<title>8</title>
<path fill="none" stroke="#ced856" stroke-width="2" d="M194.49,-468C194.49,-468 164.49,-468 164.49,-468 158.49,-468 152.49,-462 152.49,-456 152.49,-456 152.49,-444 152.49,-444 152.49,-438 158.49,-432 164.49,-432 164.49,-432 194.49,-432 194.49,-432 200.49,-432 206.49,-438 206.49,-444 206.49,-444 206.49,-456 206.49,-456 206.49,-462 200.49,-468 194.49,-468"/>
<text xml:space="preserve" text-anchor="middle" x="179.49" y="-446.12" font-family="sans" font-size="10.00">call_orfs</text>
</g>
<!-- 8&#45;&gt;7 -->
<g id="edge9" class="edge">
<title>8&#45;&gt;7</title>
<path fill="none" stroke="grey" stroke-width="2" d="M151.51,-449.09C113.91,-447.51 48.23,-438.41 17.49,-396 -10.68,-357.14 0.97,-333.07 17.49,-288 33.53,-244.26 74.78,-209 106.35,-187.22"/>
<polygon fill="grey" stroke="grey" stroke-width="2" points="108.16,-190.23 114.54,-181.77 104.28,-184.4 108.16,-190.23"/>
</g>
<!-- 13 -->
<g id="node14" class="node">
<title>13</title>
<path fill="none" stroke="#56d882" stroke-width="2" d="M195.74,-396C195.74,-396 163.24,-396 163.24,-396 157.24,-396 151.24,-390 151.24,-384 151.24,-384 151.24,-372 151.24,-372 151.24,-366 157.24,-360 163.24,-360 163.24,-360 195.74,-360 195.74,-360 201.74,-360 207.74,-366 207.74,-372 207.74,-372 207.74,-384 207.74,-384 207.74,-390 201.74,-396 195.74,-396"/>
<text xml:space="preserve" text-anchor="middle" x="179.49" y="-374.12" font-family="sans" font-size="10.00">filter_orfs</text>
</g>
<!-- 8&#45;&gt;13 -->
<g id="edge18" class="edge">
<title>8&#45;&gt;13</title>
<path fill="none" stroke="grey" stroke-width="2" d="M179.49,-431.34C179.49,-424.75 179.49,-417.08 179.49,-409.67"/>
<polygon fill="grey" stroke="grey" stroke-width="2" points="182.99,-409.93 179.49,-399.93 175.99,-409.93 182.99,-409.93"/>
</g>
<!-- 9 -->
<g id="node10" class="node">
<title>9</title>
<path fill="none" stroke="#56d863" stroke-width="2" d="M224.74,-540C224.74,-540 162.24,-540 162.24,-540 156.24,-540 150.24,-534 150.24,-528 150.24,-528 150.24,-516 150.24,-516 150.24,-510 156.24,-504 162.24,-504 162.24,-504 224.74,-504 224.74,-504 230.74,-504 236.74,-510 236.74,-516 236.74,-516 236.74,-528 236.74,-528 236.74,-534 230.74,-540 224.74,-540"/>
<text xml:space="preserve" text-anchor="middle" x="193.49" y="-518.12" font-family="sans" font-size="10.00">extract_te_fasta</text>
</g>
<!-- 9&#45;&gt;8 -->
<g id="edge11" class="edge">
<title>9&#45;&gt;8</title>
<path fill="none" stroke="grey" stroke-width="2" d="M189.96,-503.34C188.64,-496.75 187.11,-489.08 185.62,-481.67"/>
<polygon fill="grey" stroke="grey" stroke-width="2" points="189.06,-480.99 183.66,-471.87 182.19,-482.36 189.06,-480.99"/>
</g>
<!-- 10&#45;&gt;9 -->
<g id="edge13" class="edge">
<title>10&#45;&gt;9</title>
<path fill="none" stroke="grey" stroke-width="2" d="M276.94,-575.15C263.51,-566.76 247.28,-556.62 232.73,-547.52"/>
<polygon fill="grey" stroke="grey" stroke-width="2" points="234.89,-544.75 224.56,-542.42 231.18,-550.68 234.89,-544.75"/>
</g>
<!-- 11 -->
<g id="node12" class="node">
<title>11</title>
<path fill="none" stroke="#61d856" stroke-width="2" d="M235.99,-612C235.99,-612 150.99,-612 150.99,-612 144.99,-612 138.99,-606 138.99,-600 138.99,-600 138.99,-588 138.99,-588 138.99,-582 144.99,-576 150.99,-576 150.99,-576 235.99,-576 235.99,-576 241.99,-576 247.99,-582 247.99,-588 247.99,-588 247.99,-600 247.99,-600 247.99,-606 241.99,-612 235.99,-612"/>
<text xml:space="preserve" text-anchor="middle" x="193.49" y="-590.12" font-family="sans" font-size="10.00">decompress_genome</text>
</g>
<!-- 11&#45;&gt;9 -->
<g id="edge12" class="edge">
<title>11&#45;&gt;9</title>
<path fill="none" stroke="grey" stroke-width="2" d="M193.49,-575.34C193.49,-568.75 193.49,-561.08 193.49,-553.67"/>
<polygon fill="grey" stroke="grey" stroke-width="2" points="196.99,-553.93 193.49,-543.93 189.99,-553.93 196.99,-553.93"/>
</g>
<!-- 12 -->
<g id="node13" class="node">
<title>12</title>
<path fill="none" stroke="#b6d856" stroke-width="2" d="M193.87,-252C193.87,-252 99.12,-252 99.12,-252 93.12,-252 87.12,-246 87.12,-240 87.12,-240 87.12,-228 87.12,-228 87.12,-222 93.12,-216 99.12,-216 99.12,-216 193.87,-216 193.87,-216 199.87,-216 205.87,-222 205.87,-228 205.87,-228 205.87,-240 205.87,-240 205.87,-246 199.87,-252 193.87,-252"/>
<text xml:space="preserve" text-anchor="middle" x="146.49" y="-230.12" font-family="sans" font-size="10.00">classify_orf_confidence</text>
</g>
<!-- 12&#45;&gt;7 -->
<g id="edge10" class="edge">
<title>12&#45;&gt;7</title>
<path fill="none" stroke="grey" stroke-width="2" d="M146.49,-215.34C146.49,-208.75 146.49,-201.08 146.49,-193.67"/>
<polygon fill="grey" stroke="grey" stroke-width="2" points="149.99,-193.93 146.49,-183.93 142.99,-193.93 149.99,-193.93"/>
</g>
<!-- 13&#45;&gt;12 -->
<g id="edge17" class="edge">
<title>13&#45;&gt;12</title>
<path fill="none" stroke="grey" stroke-width="2" d="M174.61,-359.39C171.82,-349.1 168.32,-335.85 165.49,-324 160.86,-304.6 156.17,-282.69 152.62,-265.46"/>
<polygon fill="grey" stroke="grey" stroke-width="2" points="156.06,-264.85 150.63,-255.75 149.21,-266.25 156.06,-264.85"/>
</g>
<!-- 14 -->
<g id="node15" class="node">
<title>14</title>
<path fill="none" stroke="#97d856" stroke-width="2" d="M288.24,-324C288.24,-324 186.74,-324 186.74,-324 180.74,-324 174.74,-318 174.74,-312 174.74,-312 174.74,-300 174.74,-300 174.74,-294 180.74,-288 186.74,-288 186.74,-288 288.24,-288 288.24,-288 294.24,-288 300.24,-294 300.24,-300 300.24,-300 300.24,-312 300.24,-312 300.24,-318 294.24,-324 288.24,-324"/>
<text xml:space="preserve" text-anchor="middle" x="237.49" y="-302.12" font-family="sans" font-size="10.00">coding_potential_intrinsic</text>
</g>
<!-- 13&#45;&gt;14 -->
<g id="edge19" class="edge">
<title>13&#45;&gt;14</title>
<path fill="none" stroke="grey" stroke-width="2" d="M194.13,-359.34C200.26,-351.93 207.54,-343.14 214.37,-334.9"/>
<polygon fill="grey" stroke="grey" stroke-width="2" points="217.04,-337.17 220.73,-327.23 211.65,-332.7 217.04,-337.17"/>
</g>
<!-- 15 -->
<g id="node16" class="node">
<title>15</title>
<path fill="none" stroke="#5673d8" stroke-width="2" d="M106.74,-324C106.74,-324 38.24,-324 38.24,-324 32.24,-324 26.24,-318 26.24,-312 26.24,-312 26.24,-300 26.24,-300 26.24,-294 32.24,-288 38.24,-288 38.24,-288 106.74,-288 106.74,-288 112.74,-288 118.74,-294 118.74,-300 118.74,-300 118.74,-312 118.74,-312 118.74,-318 112.74,-324 106.74,-324"/>
<text xml:space="preserve" text-anchor="middle" x="72.49" y="-302.12" font-family="sans" font-size="10.00">rpsblast_domains</text>
</g>
<!-- 13&#45;&gt;15 -->
<g id="edge21" class="edge">
<title>13&#45;&gt;15</title>
<path fill="none" stroke="grey" stroke-width="2" d="M152.21,-359.15C139.51,-350.84 124.19,-340.82 110.38,-331.79"/>
<polygon fill="grey" stroke="grey" stroke-width="2" points="112.54,-329.02 102.25,-326.47 108.7,-334.87 112.54,-329.02"/>
</g>
<!-- 18 -->
<g id="node19" class="node">
<title>18</title>
<path fill="none" stroke="#d85656" stroke-width="2" d="M364.49,-324C364.49,-324 330.49,-324 330.49,-324 324.49,-324 318.49,-318 318.49,-312 318.49,-312 318.49,-300 318.49,-300 318.49,-294 324.49,-288 330.49,-288 330.49,-288 364.49,-288 364.49,-288 370.49,-288 376.49,-294 376.49,-300 376.49,-300 376.49,-312 376.49,-312 376.49,-318 370.49,-324 364.49,-324"/>
<text xml:space="preserve" text-anchor="middle" x="347.49" y="-302.12" font-family="sans" font-size="10.00">align_orfs</text>
</g>
<!-- 13&#45;&gt;18 -->
<g id="edge23" class="edge">
<title>13&#45;&gt;18</title>
<path fill="none" stroke="grey" stroke-width="2" d="M208.52,-365.49C232.47,-355.92 267.59,-341.74 305.73,-325.54"/>
<polygon fill="grey" stroke="grey" stroke-width="2" points="307.05,-328.79 314.88,-321.65 304.3,-322.35 307.05,-328.79"/>
</g>
<!-- 14&#45;&gt;12 -->
<g id="edge16" class="edge">
<title>14&#45;&gt;12</title>
<path fill="none" stroke="grey" stroke-width="2" d="M214.53,-287.34C204.05,-279.27 191.43,-269.57 179.92,-260.72"/>
<polygon fill="grey" stroke="grey" stroke-width="2" points="182.22,-258.07 172.16,-254.75 177.95,-263.62 182.22,-258.07"/>
</g>
<!-- 15&#45;&gt;12 -->
<g id="edge15" class="edge">
<title>15&#45;&gt;12</title>
<path fill="none" stroke="grey" stroke-width="2" d="M91.16,-287.34C99.34,-279.6 109.11,-270.36 118.15,-261.81"/>
<polygon fill="grey" stroke="grey" stroke-width="2" points="120.51,-264.4 125.37,-254.98 115.7,-259.31 120.51,-264.4"/>
</g>
<!-- 16 -->
<g id="node17" class="node">
<title>16</title>
<path fill="none" stroke="#d8c356" stroke-width="2" d="M114.49,-396C114.49,-396 38.49,-396 38.49,-396 32.49,-396 26.49,-390 26.49,-384 26.49,-384 26.49,-372 26.49,-372 26.49,-366 32.49,-360 38.49,-360 38.49,-360 114.49,-360 114.49,-360 120.49,-360 126.49,-366 126.49,-372 126.49,-372 126.49,-384 126.49,-384 126.49,-390 120.49,-396 114.49,-396"/>
<text xml:space="preserve" text-anchor="middle" x="76.49" y="-374.12" font-family="sans" font-size="10.00">build_rps_database</text>
</g>
<!-- 16&#45;&gt;15 -->
<g id="edge20" class="edge">
<title>16&#45;&gt;15</title>
<path fill="none" stroke="grey" stroke-width="2" d="M75.48,-359.34C75.1,-352.75 74.67,-345.08 74.24,-337.67"/>
<polygon fill="grey" stroke="grey" stroke-width="2" points="77.75,-337.71 73.69,-327.92 70.76,-338.11 77.75,-337.71"/>
</g>
<!-- 17 -->
<g id="node18" class="node">
<title>17</title>
<path fill="none" stroke="#d8ac56" stroke-width="2" d="M364.37,-180C364.37,-180 302.62,-180 302.62,-180 296.62,-180 290.62,-174 290.62,-168 290.62,-168 290.62,-156 290.62,-156 290.62,-150 296.62,-144 302.62,-144 302.62,-144 364.37,-144 364.37,-144 370.37,-144 376.37,-150 376.37,-156 376.37,-156 376.37,-168 376.37,-168 376.37,-174 370.37,-180 364.37,-180"/>
<text xml:space="preserve" text-anchor="middle" x="333.49" y="-158.12" font-family="sans" font-size="10.00">build_phylogeny</text>
</g>
<!-- 17&#45;&gt;1 -->
<g id="edge4" class="edge">
<title>17&#45;&gt;1</title>
<path fill="none" stroke="grey" stroke-width="2" d="M333.49,-143.34C333.49,-136.75 333.49,-129.08 333.49,-121.67"/>
<polygon fill="grey" stroke="grey" stroke-width="2" points="336.99,-121.93 333.49,-111.93 329.99,-121.93 336.99,-121.93"/>
</g>
<!-- 18&#45;&gt;17 -->
<g id="edge22" class="edge">
<title>18&#45;&gt;17</title>
<path fill="none" stroke="grey" stroke-width="2" d="M345.72,-287.02C343.4,-263.54 339.32,-222.11 336.51,-193.64"/>
<polygon fill="grey" stroke="grey" stroke-width="2" points="340.01,-193.46 335.55,-183.85 333.04,-194.15 340.01,-193.46"/>
</g>
</g>
</svg>
