<?xml version="1.0" encoding="UTF-8" standalone="no"?>
<!DOCTYPE svg PUBLIC "-//W3C//DTD SVG 1.1//EN"
 "http://www.w3.org/Graphics/SVG/1.1/DTD/svg11.dtd">
<!-- Generated by graphviz version 14.1.1 (20260118.1130)
 -->
<!-- Title: snakemake_dag Pages: 1 -->
<svg width="128pt" height="476pt"
 viewBox="0.00 0.00 128.00 476.00" xmlns="http://www.w3.org/2000/svg" xmlns:xlink="http://www.w3.org/1999/xlink">
<g id="graph0" class="graph" transform="scale(1 1) rotate(0) translate(4 472)">
<title>snakemake_dag</title>
<polygon fill="white" stroke="none" points="-4,4 -4,-472 123.5,-472 123.5,4 -4,4"/>
<!-- 0 -->
<g id="node1" class="node">
<title>0</title>
<path fill="none" stroke="#d85656" stroke-width="2" d="M74.75,-36C74.75,-36 44.75,-36 44.75,-36 38.75,-36 32.75,-30 32.75,-24 32.75,-24 32.75,-12 32.75,-12 32.75,-6 38.75,0 44.75,0 44.75,0 74.75,0 74.75,0 80.75,0 86.75,-6 86.75,-12 86.75,-12 86.75,-24 86.75,-24 86.75,-30 80.75,-36 74.75,-36"/>
<text xml:space="preserve" text-anchor="middle" x="59.75" y="-15.62" font-family="sans" font-size="10.00">all</text>
</g>
<!-- 1 -->
<g id="node2" class="node">
<title>1</title>
<path fill="none" stroke="#78d856" stroke-width="2" d="M74.75,-108C74.75,-108 44.75,-108 44.75,-108 38.75,-108 32.75,-102 32.75,-96 32.75,-96 32.75,-84 32.75,-84 32.75,-78 38.75,-72 44.75,-72 44.75,-72 74.75,-72 74.75,-72 80.75,-72 86.75,-78 86.75,-84 86.75,-84 86.75,-96 86.75,-96 86.75,-102 80.75,-108 74.75,-108"/>
<text xml:space="preserve" text-anchor="middle" x="59.75" y="-87.62" font-family="sans" font-size="10.00">final</text>
</g>
<!-- 1&#45;&gt;0 -->
<g id="edge1" class="edge">
<title>1&#45;&gt;0</title>
<path fill="none" stroke="grey" stroke-width="2" d="M59.75,-71.34C59.75,-64.75 59.75,-57.08 59.75,-49.67"/>
<polygon fill="grey" stroke="grey" stroke-width="2" points="63.25,-49.93 59.75,-39.93 56.25,-49.93 63.25,-49.93"/>
</g>
<!-- 2 -->
<g id="node3" class="node">
<title>2</title>
<path fill="none" stroke="#56d87b" stroke-width="2" d="M107.5,-180C107.5,-180 12,-180 12,-180 6,-180 0,-174 0,-168 0,-168 0,-156 0,-156 0,-150 6,-144 12,-144 12,-144 107.5,-144 107.5,-144 113.5,-144 119.5,-150 119.5,-156 119.5,-156 119.5,-168 119.5,-168 119.5,-174 113.5,-180 107.5,-180"/>
<text xml:space="preserve" text-anchor="middle" x="59.75" y="-159.62" font-family="sans" font-size="10.00">plot_repeat_landscape</text>
</g>
<!-- 2&#45;&gt;1 -->
<g id="edge2" class="edge">
<title>2&#45;&gt;1</title>
<path fill="none" stroke="grey" stroke-width="2" d="M59.75,-143.34C59.75,-136.75 59.75,-129.08 59.75,-121.67"/>
<polygon fill="grey" stroke="grey" stroke-width="2" points="63.25,-121.93 59.75,-111.93 56.25,-121.93 63.25,-121.93"/>
</g>
<!-- 3 -->
<g id="node4" class="node">
<title>3</title>
<path fill="none" stroke="#56d8c9" stroke-width="2" d="M88.38,-252C88.38,-252 31.12,-252 31.12,-252 25.12,-252 19.12,-246 19.12,-240 19.12,-240 19.12,-228 19.12,-228 19.12,-222 25.12,-216 31.12,-216 31.12,-216 88.38,-216 88.38,-216 94.38,-216 100.38,-222 100.38,-228 100.38,-228 100.38,-240 100.38,-240 100.38,-246 94.38,-252 88.38,-252"/>
<text xml:space="preserve" text-anchor="middle" x="59.75" y="-231.62" font-family="sans" font-size="10.00">repeatmasker</text>
</g>
<!-- 3&#45;&gt;2 -->
<g id="edge3" class="edge">
<title>3&#45;&gt;2</title>
<path fill="none" stroke="grey" stroke-width="2" d="M59.75,-215.34C59.75,-208.75 59.75,-201.08 59.75,-193.67"/>
<polygon fill="grey" stroke="grey" stroke-width="2" points="63.25,-193.93 59.75,-183.93 56.25,-193.93 63.25,-193.93"/>
</g>
<!-- 4 -->
<g id="node5" class="node">
<title>4</title>
<path fill="none" stroke="#c6d856" stroke-width="2" d="M77.5,-324C77.5,-324 42,-324 42,-324 36,-324 30,-318 30,-312 30,-312 30,-300 30,-300 30,-294 36,-288 42,-288 42,-288 77.5,-288 77.5,-288 83.5,-288 89.5,-294 89.5,-300 89.5,-300 89.5,-312 89.5,-312 89.5,-318 83.5,-324 77.5,-324"/>
<text xml:space="preserve" text-anchor="middle" x="59.75" y="-303.62" font-family="sans" font-size="10.00">collect_te</text>
</g>
<!-- 4&#45;&gt;3 -->
<g id="edge4" class="edge">
<title>4&#45;&gt;3</title>
<path fill="none" stroke="grey" stroke-width="2" d="M59.75,-287.34C59.75,-280.75 59.75,-273.08 59.75,-265.67"/>
<polygon fill="grey" stroke="grey" stroke-width="2" points="63.25,-265.93 59.75,-255.93 56.25,-265.93 63.25,-265.93"/>
</g>
<!-- 5 -->
<g id="node6" class="node">
<title>5</title>
<path fill="none" stroke="#56a2d8" stroke-width="2" d="M91,-396C91,-396 28.5,-396 28.5,-396 22.5,-396 16.5,-390 16.5,-384 16.5,-384 16.5,-372 16.5,-372 16.5,-366 22.5,-360 28.5,-360 28.5,-360 91,-360 91,-360 97,-360 103,-366 103,-372 103,-372 103,-384 103,-384 103,-390 97,-396 91,-396"/>
<text xml:space="preserve" text-anchor="middle" x="59.75" y="-375.62" font-family="sans" font-size="10.00">repeatmodeler</text>
</g>
<!-- 5&#45;&gt;4 -->
<g id="edge5" class="edge">
<title>5&#45;&gt;4</title>
<path fill="none" stroke="grey" stroke-width="2" d="M59.75,-359.34C59.75,-352.75 59.75,-345.08 59.75,-337.67"/>
<polygon fill="grey" stroke="grey" stroke-width="2" points="63.25,-337.93 59.75,-327.93 56.25,-337.93 63.25,-337.93"/>
</g>
<!-- 6 -->
<g id="node7" class="node">
<title>6</title>
<path fill="none" stroke="#d8a456" stroke-width="2" d="M90.25,-468C90.25,-468 29.25,-468 29.25,-468 23.25,-468 17.25,-462 17.25,-456 17.25,-456 17.25,-444 17.25,-444 17.25,-438 23.25,-432 29.25,-432 29.25,-432 90.25,-432 90.25,-432 96.25,-432 102.25,-438 102.25,-444 102.25,-444 102.25,-456 102.25,-456 102.25,-462 96.25,-468 90.25,-468"/>
<text xml:space="preserve" text-anchor="middle" x="59.75" y="-447.62" font-family="sans" font-size="10.00">build_database</text>
</g>
<!-- 6&#45;&gt;5 -->
<g id="edge6" class="edge">
<title>6&#45;&gt;5</title>
<path fill="none" stroke="grey" stroke-width="2" d="M59.75,-431.34C59.75,-424.75 59.75,-417.08 59.75,-409.67"/>
<polygon fill="grey" stroke="grey" stroke-width="2" points="63.25,-409.93 59.75,-399.93 56.25,-409.93 63.25,-409.93"/>
</g>
</g>
</svg>
